<svg width="60" height="19" viewBox="0 0 60 19" fill="none" xmlns="http://www.w3.org/2000/svg">
<path d="M59.7338 15.7182H57.5347V7.31539C57.5347 7.1765 57.3958 7.04919 57.2685 7.04919H54.0741L53.0787 6.9103V6.71354C53.0787 6.57465 53.0093 6.44734 52.8819 6.44734L49.0162 5.71817H48.0208C47.9514 5.64873 47.9514 5.57928 47.8819 5.57928L43.2176 4.44502C43.1481 4.44502 43.1481 4.37558 43.0787 4.37558H43.0093L40.8796 4.64178V2.77836C40.8796 2.70891 40.8102 2.63947 40.7407 2.5816L39.4792 1.6441L37.2106 1.84086V0.776042C37.2106 0.637153 37.1412 0.509838 37.0139 0.509838L32.1528 0.046875C32.0833 0.046875 32.0139 0.0468739 31.956 0.116318C31.8981 0.185763 31.8866 0.255209 31.8866 0.313079V0.776042H28.4144V0.313079C28.4144 0.243635 28.4144 0.174189 28.3449 0.116318C28.2755 0.0468739 28.206 0.046875 28.1481 0.046875L23.5532 0.648726C23.4144 0.648726 23.3565 0.787616 23.3565 0.91493V1.97974L21.088 1.78299C21.088 1.78299 21.088 1.78299 21.0185 1.78299L19.5486 2.72048C19.4792 2.78993 19.4097 2.85938 19.4097 2.91725V4.78067L17.338 4.44502H17.2685C17.1991 4.44502 17.1296 4.44502 17.1296 4.51447L12.4653 5.64873C12.3958 5.64873 12.3264 5.71817 12.3264 5.78761H11.331L7.32639 6.45891C7.1875 6.45891 7.12963 6.5978 7.12963 6.72511V6.92187L6.13426 7.06076H2.92824C2.78935 7.06076 2.66204 7.19965 2.66204 7.32697V15.7992H0.266204C0.127315 15.7992 0 15.9381 0 16.0654C0 16.1927 0.138889 16.3316 0.266204 16.3316H59.7338C59.8727 16.3316 60 16.1927 60 16.0654C60 15.8455 59.8611 15.7182 59.7338 15.7182ZM57.0023 7.58159V15.776H54.3403V7.58159H57.0023ZM53.7963 7.51215V15.7066H53.0671V7.44271L53.7963 7.51215ZM52.5347 15.7182H52.0023V13.8547C52.0023 13.7159 51.8634 13.5885 51.7361 13.5885L50 13.4497C49.9306 13.4497 49.8611 13.4497 49.8032 13.5191C49.7338 13.5885 49.7338 13.658 49.7338 13.7159V15.7876H49.2014V6.32002L52.5347 6.92187V15.7182ZM51.5278 15.7182H50.2662V13.9821L51.5278 14.1209V15.7182ZM47.9282 6.32002H48.6574V15.7876H47.9282V6.32002ZM47.4653 15.7182H46.4699V13.5191C46.4699 13.3802 46.331 13.2529 46.2037 13.2529H44.1319C43.9931 13.2529 43.8657 13.3918 43.8657 13.5191V15.7182H43.1944V5.04687L47.3958 6.04224V15.7066H47.4653V15.7182ZM45.9375 15.7182H44.4097V13.7853H45.9375V15.7182ZM15.7986 15.7182H14.2708V13.7853H15.7986V15.7182ZM16.0648 13.2529H13.9931C13.8542 13.2529 13.7269 13.3918 13.7269 13.5191V15.7182H12.7315V6.12326L16.9329 5.12789V15.7992H16.2616V13.6001C16.331 13.3802 16.2037 13.2529 16.0648 13.2529ZM11.5278 6.32002H12.2569V15.7876H11.5278V6.32002ZM17.4653 5.04687L21.8634 5.64873V15.7876H17.4653V5.04687ZM28.5995 3.44965V15.7876H22.4653V3.44965H28.5995ZM24.7338 2.91725C24.9306 2.51215 25.3356 2.31539 25.7986 2.31539C26.2616 2.31539 26.6667 2.5816 26.8634 2.91725H24.7338ZM28.4028 2.51215H31.875V2.91725H31.3426C31.2037 2.91725 31.0764 3.05613 31.0764 3.18345V4.12095H29.1435V3.18345C29.1435 3.04456 29.0046 2.91725 28.8773 2.91725H28.4144V2.51215H28.4028ZM31.0648 5.64873H29.1319V4.65336H31.0648V5.64873ZM29.1319 6.18113H31.0648V13.2529H29.1319V6.18113ZM29.1319 13.7853H31.0648V15.7182H29.1319V13.7853ZM31.5972 3.44965H37.7315V15.7876H31.5972V3.44965ZM33.3333 2.91725C33.5301 2.51215 33.9352 2.31539 34.3981 2.31539C34.8611 2.31539 35.2662 2.5816 35.463 2.91725H33.3333ZM38.2639 5.64873L42.662 5.04687V15.776H38.2639V5.64873ZM40.1968 4.85011L39.4676 4.91956V2.52373L40.1968 3.05613V4.85011ZM39.0046 2.24595V4.97743L38.2755 5.04687V3.114C38.2755 2.97512 38.1366 2.8478 38.0093 2.8478H36.9444V2.44271L39.0046 2.24595ZM36.4005 1.11169V2.91725H35.9954C35.7292 2.24595 35.0579 1.78299 34.3287 1.78299C33.5995 1.78299 32.9282 2.24595 32.662 2.91725H32.2569V0.648726L36.4005 1.11169ZM31.8056 1.32002V1.99132H28.3333V1.32002H31.8056ZM27.8704 0.579281V2.91725H27.4653C27.1991 2.24595 26.5278 1.78299 25.7986 1.78299C25.0694 1.78299 24.3981 2.24595 24.1319 2.91725H23.7269V1.11169L27.8704 0.579281ZM23.2639 2.45428V2.85938H22.1991C22.0602 2.85938 21.9329 2.99826 21.9329 3.12558V5.05845L21.2037 4.989V2.25752L23.2639 2.45428ZM20 3.04456L20.7292 2.51215V4.90799L20 4.83854V3.04456ZM7.66204 6.9103L10.9954 6.30845V15.7066H10.463V13.6348C10.463 13.5654 10.463 13.4959 10.3935 13.4381C10.3241 13.3686 10.2546 13.3686 10.1968 13.3686L8.3912 13.5075C8.25231 13.5075 8.125 13.6464 8.125 13.7737V15.6371H7.59259V6.89873H7.66204V6.9103ZM9.93056 15.7182H8.66898V14.0515L9.93056 13.9126V15.7182ZM6.13426 11.1117L7.12963 13.0446V13.9821H4.46759L6.13426 11.1117ZM7.12963 14.5145V15.776H6.40046V14.5145H7.12963ZM7.12963 11.8524L6.40046 10.452V7.52372L7.12963 7.45428V11.8524ZM3.19444 7.58159H5.85648V10.5098L3.72685 14.1094C3.65741 14.1788 3.65741 14.3061 3.72685 14.3756C3.7963 14.445 3.86574 14.5145 3.92361 14.5145H5.85648V15.776H3.19444C3.19444 15.7876 3.19444 7.58159 3.19444 7.58159Z" fill="url(#paint0_linear_28_171)"/>
<path d="M57.3958 17.0488H2.60409C2.46521 17.0488 2.33789 17.1877 2.33789 17.315C2.33789 17.4423 2.47678 17.5812 2.60409 17.5812H57.4073C57.5462 17.5812 57.6735 17.4423 57.6735 17.315C57.6735 17.1877 57.5346 17.0488 57.3958 17.0488Z" fill="url(#paint1_linear_28_171)"/>
<path d="M55.0001 18.3105H5.00009C4.8612 18.3105 4.73389 18.4494 4.73389 18.5767C4.73389 18.7041 4.87278 18.843 5.00009 18.843H55.0001C55.139 18.843 55.2663 18.7041 55.2663 18.5767C55.2663 18.4494 55.139 18.3105 55.0001 18.3105Z" fill="url(#paint2_linear_28_171)"/>
<path d="M19.7339 10.9844C18.7385 10.9844 17.9978 11.783 17.9978 12.7205C17.9978 13.7159 18.7964 14.4566 19.7339 14.4566C20.7293 14.4566 21.47 13.658 21.47 12.7205C21.47 11.7135 20.6714 10.9844 19.7339 10.9844ZM19.7339 13.9821C19.0626 13.9821 18.4723 13.4497 18.4723 12.7205C18.4723 11.9913 19.0047 11.4589 19.7339 11.4589C20.4052 11.4589 20.9955 11.9913 20.9955 12.7205C20.9955 13.4497 20.4052 13.9821 19.7339 13.9821Z" fill="url(#paint3_linear_28_171)"/>
<path d="M15.2664 6.37742C15.2664 6.23853 15.1275 6.18066 15.0002 6.18066C14.8613 6.18066 14.734 6.25011 14.734 6.37742L13.6692 11.7825C13.6692 11.852 13.6692 11.9214 13.7386 11.9793C13.8081 12.0487 13.8775 12.0487 13.9354 12.0487H15.9956C16.065 12.0487 16.1345 11.9793 16.1923 11.9793C16.2502 11.9793 16.2618 11.8404 16.2618 11.7825L15.2664 6.37742ZM14.3289 11.5858L15.0581 7.84733L15.7872 11.5858H14.3289Z" fill="url(#paint4_linear_28_171)"/>
<path d="M8.40292 12.6512L10.2085 12.5123C10.2779 12.5123 10.3474 12.4429 10.4052 12.3734C10.4747 12.304 10.4747 12.2345 10.4747 12.1767L9.34042 7.63963C9.34042 7.50074 9.20153 7.44287 9.07422 7.44287C8.93533 7.44287 8.87746 7.58176 8.80801 7.63963L8.13672 12.304C8.13672 12.3734 8.13672 12.4429 8.20616 12.5007C8.26403 12.6512 8.33348 12.6512 8.40292 12.6512ZM9.13209 9.12111L9.80339 11.9915L8.66913 12.0609L9.13209 9.12111Z" fill="url(#paint5_linear_28_171)"/>
<path d="M40.4629 10.9844C39.4675 10.9844 38.7268 11.783 38.7268 12.7205C38.7268 13.7159 39.5254 14.4566 40.4629 14.4566C41.4583 14.4566 42.199 13.658 42.199 12.7205C42.199 11.7135 41.4699 10.9844 40.4629 10.9844ZM40.4629 13.9821C39.7916 13.9821 39.2013 13.4497 39.2013 12.7205C39.2013 11.9913 39.7338 11.4589 40.4629 11.4589C41.1921 11.4589 41.7245 11.9913 41.7245 12.7205C41.7361 13.4497 41.1342 13.9821 40.4629 13.9821Z" fill="url(#paint6_linear_28_171)"/>
<path d="M44.1318 12.1188H46.2036C46.3425 12.1188 46.4698 11.9799 46.4698 11.8526C46.4698 11.7831 46.4698 11.7831 46.4698 11.7137L45.4744 6.30858C45.4744 6.16969 45.3355 6.11182 45.2082 6.11182C45.0693 6.11182 44.942 6.18126 44.942 6.30858L43.8772 11.7137C43.8772 11.7831 43.8772 11.8526 43.9466 11.9104C44.0045 12.0493 44.0624 12.1188 44.1318 12.1188ZM45.1388 7.84793L45.8679 11.5864H44.4675L45.1388 7.84793Z" fill="url(#paint7_linear_28_171)"/>
<path d="M50.0001 12.512L51.7362 12.6509C51.8751 12.6509 52.0024 12.512 52.0024 12.3847V12.3152L51.3311 7.65086C51.3311 7.51197 51.1922 7.4541 51.0649 7.4541C50.9376 7.4541 50.7987 7.52355 50.7987 7.65086L49.7339 12.1879C49.7339 12.2573 49.7339 12.3268 49.8033 12.3847C49.8612 12.4541 49.9306 12.512 50.0001 12.512ZM51.0649 9.12077L51.47 12.1185L50.3357 12.049L51.0649 9.12077Z" fill="url(#paint8_linear_28_171)"/>
<defs>
<linearGradient id="paint0_linear_28_171" x1="0" y1="9.44491" x2="60" y2="9.44491" gradientUnits="userSpaceOnUse">
<stop stop-color="#1169F3"/>
<stop offset="1" stop-color="#C11DFF"/>
</linearGradient>
<linearGradient id="paint1_linear_28_171" x1="0" y1="9.44491" x2="60" y2="9.44491" gradientUnits="userSpaceOnUse">
<stop stop-color="#1169F3"/>
<stop offset="1" stop-color="#C11DFF"/>
</linearGradient>
<linearGradient id="paint2_linear_28_171" x1="0" y1="9.44491" x2="60" y2="9.44491" gradientUnits="userSpaceOnUse">
<stop stop-color="#1169F3"/>
<stop offset="1" stop-color="#C11DFF"/>
</linearGradient>
<linearGradient id="paint3_linear_28_171" x1="0" y1="9.44491" x2="60" y2="9.44491" gradientUnits="userSpaceOnUse">
<stop stop-color="#1169F3"/>
<stop offset="1" stop-color="#C11DFF"/>
</linearGradient>
<linearGradient id="paint4_linear_28_171" x1="0" y1="9.44491" x2="60" y2="9.44491" gradientUnits="userSpaceOnUse">
<stop stop-color="#1169F3"/>
<stop offset="1" stop-color="#C11DFF"/>
</linearGradient>
<linearGradient id="paint5_linear_28_171" x1="0" y1="9.44491" x2="60" y2="9.44491" gradientUnits="userSpaceOnUse">
<stop stop-color="#1169F3"/>
<stop offset="1" stop-color="#C11DFF"/>
</linearGradient>
<linearGradient id="paint6_linear_28_171" x1="0" y1="9.44491" x2="60" y2="9.44491" gradientUnits="userSpaceOnUse">
<stop stop-color="#1169F3"/>
<stop offset="1" stop-color="#C11DFF"/>
</linearGradient>
<linearGradient id="paint7_linear_28_171" x1="0" y1="9.44491" x2="60" y2="9.44491" gradientUnits="userSpaceOnUse">
<stop stop-color="#1169F3"/>
<stop offset="1" stop-color="#C11DFF"/>
</linearGradient>
<linearGradient id="paint8_linear_28_171" x1="0" y1="9.44491" x2="60" y2="9.44491" gradientUnits="userSpaceOnUse">
<stop stop-color="#1169F3"/>
<stop offset="1" stop-color="#C11DFF"/>
</linearGradient>
</defs>
</svg>
