<svg xmlns="http://www.w3.org/2000/svg" xmlns:xlink="http://www.w3.org/1999/xlink" version="1.1" x="0px" y="0px" viewBox="-25.6 -51.2 563.2 691.2" enable-background="new 0 0 512 512" xml:space="preserve">
  <defs>
    <linearGradient id="brand-gradient" x1="0%" y1="0%" x2="0%" y2="100%">
      <stop offset="0%" stop-color="#1169F3"/>
      <stop offset="100%" stop-color="#C11DFF"/>
    </linearGradient>
  </defs>
  <g>
    <path fill="url(#brand-gradient)" d="M377.126,457.146h-14.04c-1.989-6.736-8.232-11.666-15.607-11.666h-3.231v-84.519h-21.084v-85.88l-21.088,0.101v-70.934   l-21.084-0.101v-76.531H269.68V50.999h-16.9V25.945h-10.46v25.054v5.23v35.749h-11.31v70.328l-21.084,0.101v70.933l-21.084-0.1   v85.88h-21.088v126.357h-3.232c-7.375,0-13.618,4.931-15.607,11.667h-14.04c-10.362,0-18.792,8.431-18.792,18.792v10.117h91.155   h97.525h91.155v-10.117C395.918,465.575,387.488,457.146,377.126,457.146z M178.215,329.58h10.627v115.897h-10.627V329.58z    M207.237,472.205v3.389h-39.483h-41.203c0.18-4.436,3.845-7.987,8.323-7.987h23.838v-5.861c0-3.201,2.606-5.806,5.81-5.806h3.232   h10.461h29.022V472.205L207.237,472.205z M209.926,434.422c-1.672,2.473-2.688,5.348-2.688,8.451v2.604h-7.935V329.58v-5.23   v-80.601l10.623,0.051V434.422z M323.162,371.421h10.623v74.059h-10.623V371.421z M280.99,214.608l10.623,0.051v65.776v5.254   v141.557c-1.574-0.406-3.203-0.692-4.92-0.692h-5.703V214.608L280.99,214.608z M241.47,172.718v-5.205v-65.074h11.311V61.46h6.439   v76.616h11.309v71.277v5.205v211.995H241.47V172.718z M220.387,243.85v-5.255v-65.776l10.623-0.051v253.786h-5.704   c-1.717,0-3.345,0.286-4.919,0.692V243.85z M294.303,445.479v5.229v5.23v16.267h-76.604v-16.267v-5.23v-5.229v-2.605   c0-1.739,1.066-3.313,2.689-4.396c1.34-0.896,3.054-1.464,4.919-1.464h5.704h10.46h29.059h10.462h5.704   c1.865,0,3.578,0.568,4.919,1.464c1.622,1.084,2.688,2.656,2.688,4.396V445.479z M302.074,434.422V285.641l10.627-0.051v80.602   v5.229v74.059h-7.938v-2.605C304.763,439.77,303.746,436.895,302.074,434.422z M347.06,475.594h-2.813h-39.483v-3.389v-16.267   h29.022h10.461h2.813h0.419c3.203,0,5.811,2.604,5.811,5.806v5.86h23.838c4.479,0,8.145,3.554,8.323,7.988L347.06,475.594   L347.06,475.594z"/>
  </g>
</svg>