<?xml version="1.0" encoding="UTF-8"?>
<svg id="Layer_2" data-name="Layer 2" xmlns="http://www.w3.org/2000/svg" xmlns:xlink="http://www.w3.org/1999/xlink" viewBox="0 0 758.01 383.62">
  <defs>
    <style>
      .cls-1 {
        fill: url(#linear-gradient-8);
      }

      .cls-2 {
        fill: url(#linear-gradient-7);
      }

      .cls-3 {
        fill: url(#linear-gradient-5);
      }

      .cls-4 {
        fill: url(#linear-gradient-6);
      }

      .cls-5 {
        fill: url(#linear-gradient-9);
      }

      .cls-6 {
        fill: url(#linear-gradient-4);
      }

      .cls-7 {
        fill: url(#linear-gradient-3);
      }

      .cls-8 {
        fill: url(#linear-gradient-2);
      }

      .cls-9 {
        fill: url(#linear-gradient);
      }

      .cls-10 {
        fill: url(#linear-gradient-10);
      }

      .cls-11 {
        fill: url(#linear-gradient-11);
      }
    </style>
    <linearGradient id="linear-gradient" x1="150.6" y1="97.22" x2="505.23" y2="97.22" gradientUnits="userSpaceOnUse">
      <stop offset="0" stop-color="#1169f3"/>
      <stop offset="1" stop-color="#c11dff"/>
    </linearGradient>
    <linearGradient id="linear-gradient-2" x1="150.6" y1="82.24" x2="505.23" y2="82.24" xlink:href="#linear-gradient"/>
    <linearGradient id="linear-gradient-3" x1="150.6" y1="145.21" x2="505.23" y2="145.21" xlink:href="#linear-gradient"/>
    <linearGradient id="linear-gradient-4" x1="150.6" y1="38.53" x2="505.23" y2="38.53" xlink:href="#linear-gradient"/>
    <linearGradient id="linear-gradient-5" x1="150.6" y1="154.22" x2="505.23" y2="154.22" xlink:href="#linear-gradient"/>
    <linearGradient id="linear-gradient-6" x1="150.6" y1="98.53" x2="505.23" y2="98.53" xlink:href="#linear-gradient"/>
    <linearGradient id="linear-gradient-7" x1="150.6" y1="184.32" x2="505.23" y2="184.32" xlink:href="#linear-gradient"/>
    <linearGradient id="linear-gradient-8" x1="150.6" y1="217.32" x2="505.23" y2="217.32" xlink:href="#linear-gradient"/>
    <linearGradient id="linear-gradient-9" x1="150.6" y1="19.27" x2="505.23" y2="19.27" xlink:href="#linear-gradient"/>
    <linearGradient id="linear-gradient-10" x1="150.6" y1="32.94" x2="505.23" y2="32.94" xlink:href="#linear-gradient"/>
    <linearGradient id="linear-gradient-11" x1="150.6" y1="95.56" x2="505.23" y2="95.56" xlink:href="#linear-gradient"/>
  </defs>
  <g id="Layer_1-2" data-name="Layer 1">
    <g>
      <g>
        <path class="cls-9" d="M461.33,93.77c-1.9,14.06,7.95,27,22,28.9,14.06,1.9,27-7.94,28.9-22,1.9-14.06-7.95-27-22-28.9-1.17-.16-2.33-.24-3.48-.24-12.65,0-23.67,9.35-25.42,22.24"/>
        <path class="cls-8" d="M367.69,78.79c-1.91,14.06,7.95,27,22,28.9,14.06,1.9,27-7.95,28.9-22,1.91-14.06-7.95-27-22-28.9-1.17-.16-2.33-.23-3.48-.23-12.66,0-23.67,9.35-25.42,22.24"/>
        <path class="cls-7" d="M405.3,142.62c-1.43,10.54,5.96,20.25,16.5,21.68,10.54,1.43,20.25-5.96,21.68-16.5,1.43-10.54-5.96-20.25-16.5-21.68-.88-.12-1.75-.18-2.61-.18-9.49,0-17.76,7.02-19.07,16.68"/>
        <path class="cls-6" d="M277.62,35.95c-1.43,10.54,5.96,20.25,16.5,21.67,10.54,1.43,20.25-5.96,21.67-16.5,1.43-10.54-5.96-20.25-16.5-21.68-.88-.12-1.75-.18-2.61-.18-9.49,0-17.76,7.01-19.07,16.68"/>
        <path class="cls-3" d="M284.23,151.81c-1.33,9.83,5.56,18.87,15.38,20.2,9.83,1.33,18.87-5.56,20.2-15.38,1.33-9.83-5.55-18.87-15.38-20.2-.82-.11-1.63-.16-2.44-.16-8.84,0-16.55,6.53-17.77,15.55"/>
        <path class="cls-4" d="M245.71,95.95c-1.43,10.54,5.96,20.25,16.5,21.68,10.54,1.43,20.25-5.96,21.67-16.5,1.43-10.54-5.96-20.25-16.5-21.68-.88-.12-1.75-.18-2.61-.18-9.49,0-17.76,7.01-19.07,16.68"/>
        <path class="cls-2" d="M346.63,181.73c-1.43,10.54,5.96,20.25,16.5,21.68,10.54,1.43,20.25-5.96,21.68-16.5,1.43-10.54-5.96-20.25-16.5-21.68-.88-.12-1.75-.18-2.61-.18-9.49,0-17.75,7.01-19.06,16.68"/>
        <path class="cls-1" d="M272.19,215.21c-1.17,8.6,4.86,16.52,13.47,17.69,8.6,1.16,16.52-4.86,17.69-13.47,1.17-8.6-4.86-16.52-13.47-17.69-.72-.1-1.43-.14-2.14-.14-7.74,0-14.48,5.72-15.56,13.61"/>
        <path class="cls-5" d="M340.66,16.68c-1.43,10.54,5.96,20.25,16.5,21.68,10.54,1.43,20.25-5.96,21.68-16.5,1.43-10.54-5.96-20.25-16.5-21.68-.88-.12-1.75-.18-2.61-.18-9.49,0-17.75,7.01-19.06,16.68"/>
        <path class="cls-10" d="M417.2,30.36c-1.43,10.54,5.96,20.25,16.5,21.68,10.54,1.43,20.25-5.96,21.68-16.5,1.43-10.54-5.96-20.25-16.5-21.68-.87-.12-1.75-.18-2.61-.18-9.49,0-17.75,7.01-19.06,16.68"/>
        <path class="cls-11" d="M315.19,93.62c-1.08,7.93,4.49,15.23,12.42,16.31,7.93,1.07,15.24-4.49,16.31-12.42s-4.48-15.24-12.42-16.31c-.66-.09-1.32-.13-1.96-.13-7.14,0-13.36,5.28-14.35,12.55"/>
      </g>
      <g>
        <polygon points="139.02 381.8 127.4 381.8 111.59 288.62 71.13 378.17 67.97 378.17 27.51 288.7 11.54 381.8 0 381.8 19.36 268.47 30.19 268.47 69.39 356.51 108.83 268.47 119.89 268.47 139.02 381.8"/>
        <path d="M156.62,264.28h12.57v13.59h-12.57v-13.59ZM157.41,294.39h10.99v87.41h-10.99v-87.41Z"/>
        <path d="M234.29,292.58c10.32,0,18.56,3.43,24.69,10.27,6.14,6.85,9.21,15.78,9.21,26.79v52.16h-10.99v-49.63c0-9.38-2.23-16.64-6.68-21.77-4.45-5.14-10.76-7.71-18.93-7.71s-14.72,2.96-20.27,8.89c-5.56,5.93-8.34,13.11-8.34,21.54v48.68h-10.98v-87.41h7.9l2.21,15.41c3.27-5.37,7.72-9.59,13.36-12.64,5.64-3.06,11.91-4.58,18.81-4.58"/>
        <path d="M364.25,263.33h10.98v118.47h-8.61l-1.58-14.86c-4.11,5.27-9.22,9.37-15.33,12.29-6.11,2.92-12.83,4.39-20.15,4.39-12.96,0-23.68-4.34-32.17-13-8.48-8.67-12.72-19.51-12.72-32.52,0-8.59,1.91-16.35,5.73-23.27,3.82-6.93,9.16-12.37,16.01-16.32,6.85-3.95,14.57-5.93,23.16-5.93,7.06,0,13.58,1.37,19.56,4.11,5.98,2.74,11.03,6.59,15.14,11.54v-44.89ZM305.69,363.03c6.53,6.61,14.75,9.92,24.66,9.92s18.14-3.32,24.7-9.96c6.56-6.64,9.84-14.94,9.84-24.89s-3.27-18.32-9.8-24.93c-6.53-6.61-14.78-9.92-24.74-9.92s-18.12,3.31-24.66,9.92c-6.53,6.61-9.8,14.92-9.8,24.93s3.27,18.32,9.8,24.93"/>
        <path d="M441.17,292.58c10.33,0,18.56,3.43,24.7,10.27,6.14,6.85,9.21,15.78,9.21,26.79v52.16h-10.98v-49.63c0-9.38-2.23-16.64-6.68-21.77-4.45-5.14-10.76-7.71-18.93-7.71s-14.71,2.96-20.27,8.89c-5.56,5.93-8.34,13.11-8.34,21.54v48.68h-10.99v-87.41h7.9l2.21,15.41c3.27-5.37,7.72-9.59,13.36-12.64,5.64-3.06,11.91-4.58,18.81-4.58"/>
        <path d="M579.58,338.18c0,.42-.01.86-.04,1.3-.03.45-.07.94-.12,1.46-.05.53-.08.95-.08,1.27h-76.82c.89,9.11,4.41,16.5,10.55,22.17,6.14,5.66,13.74,8.49,22.8,8.49,6.53,0,12.35-1.5,17.47-4.5,5.11-3,9.17-7.22,12.17-12.65h11.62c-3.85,8.9-9.35,15.78-16.52,20.63-7.16,4.85-15.41,7.27-24.74,7.27-6.22,0-12.07-1.16-17.54-3.48-5.48-2.32-10.18-5.49-14.11-9.52-3.93-4.03-7.02-8.88-9.28-14.54-2.27-5.66-3.4-11.68-3.4-18.06,0-8.54,1.92-16.27,5.77-23.2,3.85-6.93,9.17-12.37,15.96-16.32,6.8-3.95,14.33-5.93,22.6-5.93s16.08,2.03,22.8,6.08c6.72,4.06,11.88,9.55,15.49,16.48,3.61,6.93,5.41,14.61,5.41,23.04M535.88,303.01c-8.75,0-16.15,2.66-22.21,7.98-6.06,5.32-9.69,12.33-10.9,21.02h65.91c-1.27-8.8-4.9-15.83-10.91-21.1-6-5.27-13.3-7.9-21.89-7.9"/>
        <path d="M628.96,371.61h9.48v10.19h-10.91c-9.01,0-16.1-2.61-21.26-7.82-5.16-5.22-7.74-12.35-7.74-21.42v-48.21h-15.02v-2.14l24.18-24.89h1.82v17.07h28.37v9.96h-28.37v47.81c0,6.22,1.69,11.01,5.06,14.38,3.37,3.37,8.17,5.06,14.39,5.06"/>
        <path d="M651.25,264.28h12.57v13.59h-12.57v-13.59ZM652.04,294.39h10.99v87.41h-10.99v-87.41Z"/>
        <polygon points="744.17 381.8 711.93 341.34 698.1 341.34 698.1 381.8 687.11 381.8 687.11 263.33 698.1 263.33 698.1 331.14 712.09 331.14 741.25 294.39 754.76 294.39 721.49 336.28 758.01 381.8 744.17 381.8"/>
      </g>
    </g>
  </g>
</svg>