<svg xmlns="http://www.w3.org/2000/svg" version="1.1" viewBox="-5.0 -10.0 110.0 135.0">
  <defs>
    <linearGradient id="brand-gradient" x1="0%" y1="0%" x2="100%" y2="100%">
      <stop offset="0%" stop-color="#1169F3"/>
      <stop offset="100%" stop-color="#C11DFF"/>
    </linearGradient>
  </defs>
  <path d="m92 92h-5.2891v-44.09c0-0.82812-0.67188-1.5-1.5-1.5h-1.4375v-13.195c0-0.82812-0.67188-1.5-1.5-1.5h-0.36719v-8.0898c0-0.82812-0.67188-1.5-1.5-1.5h-1.2227v-2.6445c0-0.42188-0.17969-0.82422-0.49219-1.1094l-3.043-2.7695 0.007812-9.1016c0-0.82812-0.67188-1.5-1.5-1.5s-1.5 0.67188-1.5 1.5v9.0703l-3.0508 2.8125c-0.30859 0.28516-0.48438 0.68359-0.48438 1.1016v2.6445h-1.2227c-0.82813 0-1.5 0.67188-1.5 1.5v8.0898h-0.36328c-0.82812 0-1.5 0.67188-1.5 1.5v13.195h-1.4375c-0.82812 0-1.5 0.67188-1.5 1.5v5.3164h-23.199v-5.3164c0-0.82812-0.67188-1.5-1.5-1.5h-1.4375v-13.195c0-0.82812-0.67188-1.5-1.5-1.5h-0.36328v-8.0898c0-0.82812-0.67188-1.5-1.5-1.5h-1.2227v-2.6445c0-0.42188-0.17969-0.82422-0.49219-1.1094l-3.043-2.7695 0.003906-9.1055c0-0.82812-0.67188-1.5-1.5-1.5s-1.5 0.67188-1.5 1.5v9.0703l-3.0469 2.8125c-0.30859 0.28516-0.48438 0.68359-0.48438 1.1016v2.6445h-1.2227c-0.82812 0-1.5 0.67188-1.5 1.5v8.0898h-0.36719c-0.82812 0-1.5 0.67188-1.5 1.5v13.195h-1.4375c-0.82812 0-1.5 0.67188-1.5 1.5v44.09h-5.2891c-0.82812 0-1.5 0.67188-1.5 1.5s0.67188 1.5 1.5 1.5h84c0.82812 0 1.5-0.67188 1.5-1.5s-0.67188-1.5-1.5-1.5zm-74.277-42.59h17.676v2.9492h-19.113v-2.9492zm48.312 0h17.676v2.9492h-19.113v-2.9492zm11.832 5.9492v2.6836h-7.4258v-2.6836zm5.8438 0v2.6836h-2.8438v-2.6836zm-16.27 17.055v2.6836h-2.8438v-2.6836zm-2.8398-3v-2.6836h2.8438v2.6836zm0 8.6836h2.8438v2.6836h-2.8438zm5.8398 0h7.4258v2.6836h-7.4258zm0-3v-2.6836h7.4258v2.6836zm0-5.6836v-2.6836h7.4258v2.6836zm0-5.6875v-2.6836h7.4258v2.6836zm-3 0h-2.8438v-2.6836h2.8438zm-2.8398 20.055h2.8438v2.6836h-2.8438zm5.8398 0h7.4258v2.6836h-7.4258zm10.426 0h2.8438v2.6836h-2.8438zm0-3v-2.6836h2.8438v2.6836zm0-5.6836v-2.6836h2.8438v2.6836zm0-5.6836v-2.6836h2.8438v2.6836zm0-5.6875v-2.6836h2.8438v2.6836zm-13.426-5.6836h-2.8438v-2.6836h2.8438zm-2.8398 31.422h2.8438v2.4844h-2.8438zm5.8398 0h7.4258v2.4844h-7.4258zm10.426 0h2.8438v2.4844h-2.8438zm-19.266-18.816-8.5-8.5h8.5zm-32.043-15.289v2.6836h-7.4258v-2.6836zm5.8398 0v2.6836h-2.8438v-2.6836zm0 8.3672h-2.8438v-2.6836h2.8438zm0 3v2.6836h-2.8438v-2.6836zm0 8.3711h-2.8438v-2.6836h2.8438zm-5.8398 0h-7.4258v-2.6836h7.4258zm0-5.6836h-7.4258v-2.6836h7.4258zm-10.426 0h-2.8438v-2.6836h2.8438zm0 3v2.6836h-2.8438v-2.6836zm0 5.6836v2.6836h-2.8438v-2.6836zm3 0h7.4258v2.6836h-7.4258zm10.426 0h2.8438v2.6836h-2.8438zm-3-17.055v2.6836h-7.4258v-2.6836zm-10.426 2.6836h-2.8438v-2.6836h2.8438zm-2.8438 20.055h2.8438v2.6836h-2.8438zm5.8438 0h7.4258v2.6836h-7.4258zm10.426 0h2.8438v2.6836h-2.8438zm2.8398 5.6836v2.4844h-2.8438v-2.4844zm3-27.32h8.5l-8.5 8.5zm-19.266-6.7852v2.6836h-2.8438v-2.6836zm-2.8438 34.105h2.8438v2.4844h-2.8438zm5.8438 0h7.4258v2.4844h-7.4258zm16.266-14.574 11.602-11.602 11.602 11.602v17.109h-23.199v-17.109zm32.227-49.762h8.2891v1.793h-9.5117v-1.793zm-1.2266 4.793h9.5117v1.793h-9.5117zm11.012 4.793h0.36719v1.9492c-0.11719-0.03125-0.23828-0.050781-0.36719-0.050781h-12.512c-0.125 0-0.24609 0.019531-0.36328 0.050781v-1.9492zm-12.875 4.8516c0.11719 0.03125 0.23828 0.050782 0.36328 0.050782h12.512c0.125 0 0.24609-0.019532 0.36719-0.050782v1.9961c-0.11719-0.03125-0.23828-0.050781-0.36719-0.050781h-12.512c-0.125 0-0.24609 0.019531-0.36328 0.050781zm4.5898-19.426 2.0156-1.8594 2.0469 1.8672v1.9805h-4.0664v-1.9844zm-4.5898 24.32c0.11719 0.03125 0.23828 0.050781 0.36328 0.050781h12.512c0.125 0 0.24609-0.019531 0.36719-0.050781v1.9492h-13.242zm-5.9336 14.684h-23.199v-2.918h23.199zm-39.289-34.016h8.2891v1.793h-9.5117v-1.793zm-1.2227 4.793h9.5117v1.793h-9.5117zm11.012 4.793h0.36328v1.9492c-0.11719-0.03125-0.23828-0.050781-0.36328-0.050781h-12.512c-0.125 0-0.24609 0.019531-0.36719 0.050781v-1.9492zm-12.879 4.8477c0.11719 0.03125 0.23828 0.050781 0.36719 0.050781h12.512c0.125 0 0.24609-0.019531 0.36328-0.050781v1.9961c-0.11719-0.03125-0.23828-0.050782-0.36328-0.050782h-12.512c-0.125 0-0.24609 0.019532-0.36719 0.050782zm4.5898-19.422 2.0156-1.8594 2.0469 1.8672v1.9805h-4.0664v-1.9844zm-4.5898 24.32c0.11719 0.03125 0.23828 0.050781 0.36719 0.050781h12.512c0.125 0 0.24609-0.019531 0.36328-0.050781v1.9492h-13.242z" fill="url(#brand-gradient)"/>
</svg>