<svg xmlns="http://www.w3.org/2000/svg" version="1.1" viewBox="-5.0 -10.0 110.0 135.0">
  <defs>
    <linearGradient id="brand-gradient" x1="0%" y1="0%" x2="100%" y2="100%">
      <stop offset="0%" stop-color="#1169F3"/>
      <stop offset="100%" stop-color="#C11DFF"/>
    </linearGradient>
  </defs>
  <path fill="url(#brand-gradient)" d="m21.566 21.738c0.007813-0.85547-0.18359-0.64844-0.79297-1.0938-1.707-1.2539-2.5508-3.1172-2.3359-5.2148 0.36719-3.5469 4.0273-5.3711 4.8281-8.7266 0.16406-0.67969-0.078125-1.4453 0.76562-1.6992 1.0391-0.058594 0.96875 0.625 1.1133 1.4492 0.58203 3.3359 4.3906 5.3359 4.9961 8.9531 0.71484 4.2852-3.4766 5.2734-3.3086 6.1875 0.37109 0.49219 4.1875-0.20703 5.168 0.39062 0.36719 0.60547 0.19531 1.5625 0.19531 2.2383 0.003907 2.2344 0.51563 3.0625-1.9805 2.8086 0.011718 1.2812 0.14453 2.2148-0.92188 3.1445 0.43359 0.51953 0.92188 1.0039 1.3672 1.5156l6.1211 7.0312c0.96484 1.1133 1.9492 2.207 2.8672 3.3555 0.21094-0.42969 0.51953-1.0312 1.1172-0.78516 0.84766 0.34766 2.3984 1.6797 3.2734 2.2344l-0.003906-6.5039c-0.003906-0.82422 0.12109-1.6992 0.003906-2.5156-1.1367-0.96875-4.875-3.4375-5.1914-4.0781-0.30078-0.61328 0.007813-1.0508 0.56641-1.3281 1.5039 0.011719 4.3828 0.94531 5.9844 1.2539-0.76172-2.0781-2.9453-5.9414-3.3438-7.7227-0.14453-0.64844 0.65234-1.2305 1.2227-0.89453 1.7227 1.0117 4.1992 3.6211 6.0547 4.9609 0.10156-0.91797 2.1641-10.578 2.3281-10.836 0.46484-0.72656 1.4844-0.47266 1.6992 0.29688 0.27734 0.98828 0.39062 2.3438 0.58203 3.3867l1.3203 7.1523c0.55078-0.52344 6.1094-4.9336 6.4883-5.0703 0.6875-0.25781 1.1992 0.60547 1 1.1992-0.16406 0.5-0.42188 0.98047-0.65234 1.4531l-1.1719 2.3906c-0.57422 1.1602-1.0781 2.3594-1.6797 3.5039 1.9766-0.40625 3.9844-0.64844 5.9609-1.0742 1.9844 0.66016 0.10938 1.9414-0.71875 2.5352-1.2969 0.92188-2.6719 1.7422-3.9336 2.707l0.42578 7.1484c0.13281 1.9023 0.33984 3.832 0.36719 5.7344 5.2344 3.1328 7.0469 8.4062 9.6211 13.66h2.5391c0.23438-2.1914 0.38672-4.3984 0.57422-6.5938 0.34766-4-0.24609-3.5469 4.0664-3.543 1.4258 0 3.1523-0.085938 4.5547 0.027344 1.3594 0.10547 0.90625 1.4805 0.80078 2.4219-0.058594 0.80859-0.17969 1.6289-0.26562 2.4375l-0.59375 5.3047c-0.12891 1.1133-0.33594 2.293-0.33203 3.4102 0.92969 0.58984 0.64844 1.6992 0.65625 2.6328 0.023438 3.5547 0.77344 3.8398-2.6797 3.8906-0.32422 0.92969-0.90625 4.0742-1.418 4.6445-0.57422 0.63672-3.875 0.52344-4.8594 0.58594-0.097657 0.8125-0.16406 1.6289-0.22266 2.4453-0.17969 2.3867-0.19531 2.3047-2.3594 2.2969h-3.3398l-0.003906 3.582c-0.003907 2.6992 0.35156 4.1641 0.90625 6.8125 0.12891 0.62109 0.3125 1.2578 0.35937 1.8867h4.8438c0.80469-0.003906 1.6992-0.082031 2.4961 0.023438 0.94531 0.125 0.95312 1.0508 0.41016 1.6289-1.1094 0.40234-8.3906 0.12891-10.078 0.125l-31.488 0.003906c-2.3164 0-4.6602 0.074219-6.9766 0-1.1953-0.039062-1.4297-1.0664-0.60156-1.7812 0.73047-0.074218 1.5391 0 2.2734 0h4.9961c-0.15234-1.2812 1.0078-5.4219 1.1523-7.125 0.085938-1.0352 0.019532-2.1133 0.019532-3.1523v-6.207c-0.25-0.42188-0.57813-0.80469-0.84766-1.2148-1.6719-2.5547-1.2227-5.4922 0.96484-7.5664v-6.6914c-0.90234-0.93359-3.7617-3.4805-4.3281-4.4609 0.27734-0.76953 1.1523-2.332 1.5664-3.125-0.19141-0.36328-0.44922-0.70703-0.67188-1.0547l-4.2891-6.5664c-0.92578-1.4141-1.9336-2.8281-2.7188-4.3242-1.1133 0.57812-2.4375 0.47656-3.3477-0.42969-1.4727-1.4609-0.46094-3.3867-1.0078-4.9414-0.85547-2.4336-2.9219-1.5508-2.0664-5.7852-1.5977-0.71484-1.5312-1.9727-1.5234-3.5508-0.40234 0.039062-0.82422 0.015625-1.2305 0-0.20313-0.13672-0.375-0.28906-0.55078-0.45312-0.015625-0.85547-0.003906-1.7109-0.003906-2.5664 0.003906-2.3633 0.10156-2.1953 2.1875-2.1758zm2.6719-12.609c-1.5742 2.4727-6.5234 7.0039-2.6719 9.7383-0.007812-0.55078-0.046875-1.1094 0.12109-1.6445 0.14062-0.45703 2.1211-3.0859 2.668-3.1055l0.074219 0.050781c1.7383 2.1562 2.5898 2.1055 2.4062 4.8633 1.8164-1.0508 1.9961-3.3516 1-5.0547-0.15625-0.26562-3.2617-4.5078-3.5977-4.8477zm0 7.5664c-0.30078 0.36328-0.59375 0.73828-0.86719 1.1211 0 1.3047-0.039063 2.6211 0 3.9219h1.6836c-0.003907-1.4805 0.51953-4.0547-0.81641-5.043zm28.137 3.8906c-0.52344 2.1289-0.8125 4.3281-1.3789 6.4453 0.46094 0.003906 0.91797 0.003906 1.3789 0 0.4375 0.011719 0.88281-0.03125 1.3203 0-0.64844-1.4062-0.94141-6.0391-1.3203-6.4453zm-34.246 2.9414v1.7148h12.273v-1.7148zm41.453 2.0625c-0.97266 0.53906-2.5156 1.7852-3.3242 2.5664 0.27344 0.15625 0.53516 0.31641 0.79297 0.5 0.24219 0.18359 0.46094 0.375 0.67578 0.59375 0.24609-0.41016 1.832-3.4258 1.8555-3.6602zm-14.379 0c0.55859 1.2109 1.0664 2.4648 1.6562 3.6602 0.24219-0.20312 0.48047-0.41406 0.73828-0.59375 0.21094-0.1875 0.41016-0.35547 0.65234-0.5-0.94141-0.91797-2.0352-1.7227-3.0469-2.5664zm-20.773 1.4414c-1.5039 0-3.0078 0.015625-4.5117 0v1.625h8.5117c0.046874-0.53906 0-1.0859 0-1.625-1.332 0.019531-2.668-0.003906-4 0zm27.492 1.7344c-3.8516 0.39844-5.918 3.4141-6.1445 7.0703 1.9141 0.22266 3.0664-2.0703 3.7812-3.4961 0.80469-1.6016 1.1133-1.9219 2.5117-0.32812 1.7695 2.0273 4.0703 3.7773 6.8281 4.0977-0.28906-3.6953-2.8438-7.8516-6.9766-7.3438zm-30.355 1.7188c-0.71875 2.8438-0.089844 2.207 1.3711 4.2852 1.1172 1.5859 0.55078 3.1523 0.69531 4.9258 0.49219 0.46875 1.0078 0.66406 1.668 0.51172 0.71484-0.85547 0.47656-2.0742 0.47656-3.1211l-0.007813-4.2148c-0.003906-0.79297-0.054687-1.5938 0.003907-2.3867l-2.8242 0.003906c-0.44922 0.003907-0.9375 0.050781-1.3828-0.003906zm5.9648 0.35938c-0.066406 0.6875 0.003906 1.4258 0.007812 2.1172l-0.003906 3.5703c0 1.2891 0.035156 2.5391-0.17578 3.8203 0.97656 2.1289 3.418 5.4414 4.7422 7.457 0.85156 1.2969 1.6172 2.75 2.6055 3.9414 0.45312-0.84766 0.92578-1.6875 1.3359-2.5547l1.5625-3.082c0.38672-0.78125 0.75391-1.6055 1.2305-2.3398l-9.5898-11.039c-0.55859-0.64453-1.0977-1.3008-1.7148-1.8906zm33.816 0.87109c-0.59375 0.027344-1.0586 0.10938-1.6211 0.29688 0.10938 0.16406 0.22266 0.32812 0.32422 0.5 0.48828-0.23828 0.88672-0.62891 1.3945-0.80859-0.03125 0-0.066406 0-0.097656 0.011719zm-18.031 0c0.21484 0.19141 0.99609 0.84375 1.25 0.85938l0.066406-0.0625 0.15625-0.35156c-0.20312-0.25-1.1406-0.38281-1.4727-0.44531zm7.6797 1.7969c-1.0234 1.6211-1.8203 3.2852-3.7695 3.918 0.082032 1.5078 0.16797 2.957 1.3789 4.0352 0.29688 0.26562 1.0508 0.5625 1.2188 0.78125 0.5 0.65625-0.50781 2.8047 0.67578 3.8828 0.84375 0.76562 2.1719 0.84766 3.1953 0.42578 1.9336-0.99219 1.1836-2.5156 1.3008-4.3125 2.3164-0.92188 2.5039-2.4336 2.7305-4.625-2.7031-0.48828-4.8906-2.1445-6.7305-4.1055zm-5.2188 6.6953c0.039062 1.375-0.046875 2.7539 0 4.1289h2.4727c-0.011719-0.31641 0.019531-0.63281 0-0.94531-2.0469-1.1953-1.7227-2.375-2.4727-3.1836zm13.285 0.33203c-0.68359 1.4102-1.1406 2.0039-2.3789 2.9883 0.003906 0.39844 0.023437 0.80078 0 1.1953l1.3086 0.625c0.52734 0.27344 1.0195 0.53906 1.5898 0.69922-0.28516-1.2773-0.48047-4.0586-0.48047-5.4453zm-18.137 2.9883c-0.73438 1.1797-1.3125 2.4766-1.9297 3.7188l-2.0898 4.1094c-0.80078 1.6016-1.9453 3.5156-2.5547 5.1602 0.29297 0.27344 0.59375 0.53906 0.875 0.82031 1.4062-0.67969 4.5352-3.6523 5.6523-4.7422 0.48438-0.47266 2.0547-2.6016 2.6758-1.0312 0.51172 1.2852-5.9883 6.3984-7.0391 7.0469 0.57031 0.57812 1.418 1.2305 1.7617 1.9648v5.9102c4.6914-3.5 10.492-10.488 13.996-15.406 0.65625-0.92188 1.4453-1.8945 1.9492-2.9062-2.1211 0.94141-4.8516-0.027344-5.8516-2.125l-2.1328 0.007813c-3.3125 0.027343-2.8281-1.375-5.3125-2.5273zm16.125 3.2734c-4.3867 7.9062-11.285 15.871-18.195 21.555-1.4883 1.2266-3.0977 2.4297-2.4805 4.6406 0.10938 0.39062 0.79297 2.2578 1.3438 2.0195 7.7734-5.4453 18.043-17.875 20.961-27.371-0.53516-0.26953-1.125-0.52344-1.6289-0.84375zm3.2109 1.6953c-3.0078 9.5547-12.918 21.551-20.664 27.363-0.46875 0.35156-0.99609 0.66406-1.4297 1.0586-0.074219 2.9023 0.011719 5.8203 0 8.7266h22.516v-20.855c0-0.78125-0.47656-4.3828 1.4883-3.1016 0.14453 0.28125 0.21875 0.49609 0.25391 0.80859v23.148h3.8828l-0.003906-15.926c0-0.74609-0.33984-2.668 0.83594-2.6953 0.39062-0.007813 0.68359 0.1875 0.94922 0.45312 0.0625 0.55469 0.011718 1.1289 0.003906 1.6875l-0.023438 7.5859c0 0.76562 0.050782 1.543 0.019532 2.3086 1.2891 0 2.582 0.03125 3.8672 0 0.41406-3.8398 0.67188-7.707 1.0156-11.559l0.22656-2.5781c0.066406-0.77734 0.085937-1.543 0.30859-2.2969-1.1016-0.070312-2.2148 0.0625-3.3203 0-0.93359-0.69922-1.4023-2.207-1.8984-3.2266-2.418-4.9219-3.2617-7.5547-8.0273-10.902zm20.773 4.0352h-5.0117l-0.52344 5.9219c-0.17578 1.9062-0.39453 3.832-0.4375 5.7461h0.96094c1.4883 0 2.9805 0.023437 4.4648 0l1.0977-10.016c0.0625-0.54688 0.15625-1.1016 0.18359-1.6523h-0.73438zm-6.1367 13.367c-0.13281 1.0391-0.25391 2.1484-0.25 3.1953l4.2305 0.003906c0.71484 0 1.4414 0.027344 2.1562-0.003906l0.097656 0.011719c0.13672-0.26172 0.054688-2.6953 0.054688-3.207-2.0938 0.003906-4.1953 0.050781-6.2891 0zm-0.42578 4.9766c-0.11328 0.88281-0.26953 2.4688-0.24609 3.332 1.1289 0.10938 2.2812-0.054687 3.418 0v-0.37891l0.78906-2.9531zm-27.848 16.547c-2.5234-0.042969-6.1758-0.19922-8.6523 0-0.26172 1.9023-0.85938 3.8008-1.0156 5.707h30.605c-0.32422-1.7656-0.66406-4.0078-1.1172-5.707z"/>
</svg>